# xmcd
#
# Track frame offsets:
#	150
#	19557
#	36805
#	56017
#	77057
#	97142
#	117167
#	138747
#	156835
#	174217
#	197010
#
# Disc length: 2866 seconds
#
# Revision: 4
# Processed by: cddbd v1.5.2PL0 Copyright (c) Steve Scherf et al.
# Submitted via: EasyCDDAExtractor 15.3.0.1
#
DISCID=8c0b300b
DTITLE=Carolina Lao - Dulce Veneno
DYEAR=2001
DGENRE=Latin
TTITLE0=Dulce Veneno (Version Salsa)
TTITLE1=Candela Pura
TTITLE2=Sabe A Chocolate
TTITLE3=Dime Que Si (Version Salsa)
TTITLE4=Dile Que Por Mi No Tema
TTITLE5=No Me Controles
TTITLE6=Dulce Veneno (Version Balada)
TTITLE7=Quiero Perderme
TTITLE8=Dime Que Si (Version Pop)
TTITLE9=Cenizas
TTITLE10=Dulce Veneno (Version Ranchera)
EXTD=
EXTT0=
EXTT1=
EXTT2=
EXTT3=
EXTT4=
EXTT5=
EXTT6=
EXTT7=
EXTT8=
EXTT9=
EXTT10=
PLAYORDER=
